<?xml version="1.0" encoding="UTF-8" standalone="no"?>
<!-- Created with Inkscape (http://www.inkscape.org/) -->

<svg
   xmlns:dc="http://purl.org/dc/elements/1.1/"
   xmlns:cc="http://creativecommons.org/ns#"
   xmlns:rdf="http://www.w3.org/1999/02/22-rdf-syntax-ns#"
   xmlns:svg="http://www.w3.org/2000/svg"
   xmlns="http://www.w3.org/2000/svg"
   xmlns:xlink="http://www.w3.org/1999/xlink"
   xmlns:sodipodi="http://sodipodi.sourceforge.net/DTD/sodipodi-0.dtd"
   xmlns:inkscape="http://www.inkscape.org/namespaces/inkscape"
   width="341.37601mm"
   height="202.692mm"
   viewBox="0 0 341.37602 202.692"
   version="1.1"
   id="svg8"
   inkscape:export-filename="C:\Users\macmi\UnityTutorials\OnitamaClone\Assets\Sprites\Cards\FrogAttacksSprite.png"
   inkscape:export-xdpi="100"
   inkscape:export-ydpi="100"
   inkscape:version="0.92.3 (2405546, 2018-03-11)"
   sodipodi:docname="MoveCards.svg">
  <defs
     id="defs2" />
  <sodipodi:namedview
     id="base"
     pagecolor="#ffffff"
     bordercolor="#666666"
     borderopacity="1.0"
     inkscape:pageopacity="0.0"
     inkscape:pageshadow="2"
     inkscape:zoom="0.35"
     inkscape:cx="-64.285714"
     inkscape:cy="668.13466"
     inkscape:document-units="mm"
     inkscape:current-layer="layer1"
     showgrid="false"
     units="mm"
     inkscape:window-width="1920"
     inkscape:window-height="1017"
     inkscape:window-x="-8"
     inkscape:window-y="-8"
     inkscape:window-maximized="1" />
  <metadata
     id="metadata5">
    <rdf:RDF>
      <cc:Work
         rdf:about="">
        <dc:format>image/svg+xml</dc:format>
        <dc:type
           rdf:resource="http://purl.org/dc/dcmitype/StillImage" />
        <dc:title></dc:title>
      </cc:Work>
    </rdf:RDF>
  </metadata>
  <g
     inkscape:label="Layer 1"
     inkscape:groupmode="layer"
     id="layer1"
     transform="translate(0,-94.307992)">
    <image
       sodipodi:absref="C:\Users\macmi\UnityTutorials\OnitamaClone\Assets\Sprites\Cards\FrogAttacksSprite.png"
       xlink:href="C:\Users\macmi\UnityTutorials\OnitamaClone\Assets\Sprites\Cards\FrogAttacksSprite.png"
       width="341.37601"
       height="202.692"
       preserveAspectRatio="none"
       style="image-rendering:optimizeQuality"
       id="image823"
       x="2.7533531e-014"
       y="94.307991" />
    <rect
       style="opacity:1;fill:#ffeeaa;fill-opacity:1;stroke:#000000;stroke-width:0.49963289;paint-order:normal"
       id="rect826"
       width="341.37601"
       height="202.69199"
       x="-430.89285"
       y="-144.57295" />
    <flowRoot
       xml:space="preserve"
       id="flowRoot828"
       style="font-style:normal;font-variant:normal;font-weight:normal;font-stretch:normal;font-size:13.33333302px;line-height:1.25;font-family:sans-serif;-inkscape-font-specification:'sans-serif, Normal';font-variant-ligatures:normal;font-variant-caps:normal;font-variant-numeric:normal;font-feature-settings:normal;text-align:start;letter-spacing:0px;word-spacing:0px;writing-mode:lr-tb;text-anchor:start;fill:#000000;fill-opacity:1;stroke:none"
       transform="matrix(0.26458333,0,0,0.26458333,-430.89286,-144.57296)"><flowRegion
         id="flowRegion830"><rect
           id="rect832"
           width="474.28571"
           height="134.28572"
           x="62.857143"
           y="100.36573" /></flowRegion><flowPara
         id="flowPara834"
         style="font-size:48px;text-align:center;text-anchor:middle">The Mongoose Strikes</flowPara></flowRoot>    <rect
       style="opacity:1;fill:#fff6d5;fill-opacity:1;stroke:#000000;stroke-width:0.49410814;paint-order:normal"
       id="rect836"
       width="29.505892"
       height="29.505892"
       x="-259.29462"
       y="-118.03865" />
    <rect
       y="-118.03865"
       x="-229.78871"
       height="29.505892"
       width="29.505892"
       id="rect838"
       style="opacity:1;fill:#fff6d5;fill-opacity:1;stroke:#000000;stroke-width:0.49410814;paint-order:normal" />
    <rect
       style="opacity:1;fill:#fff6d5;fill-opacity:1;stroke:#000000;stroke-width:0.49410814;paint-order:normal"
       id="rect840"
       width="29.505892"
       height="29.505892"
       x="-200.28282"
       y="-118.03865" />
    <rect
       y="-118.03865"
       x="-170.77692"
       height="29.505892"
       width="29.505892"
       id="rect842"
       style="opacity:1;fill:#fff6d5;fill-opacity:1;stroke:#000000;stroke-width:0.49410814;paint-order:normal" />
    <rect
       style="opacity:1;fill:#fff6d5;fill-opacity:1;stroke:#000000;stroke-width:0.49410814;paint-order:normal"
       id="rect844"
       width="29.505892"
       height="29.505892"
       x="-141.27103"
       y="-118.03865" />
    <rect
       y="-88.532761"
       x="-259.29462"
       height="29.505892"
       width="29.505892"
       id="rect846"
       style="opacity:1;fill:#fff6d5;fill-opacity:1;stroke:#000000;stroke-width:0.49410814;paint-order:normal" />
    <rect
       style="opacity:1;fill:#ff8080;fill-opacity:1;stroke:#000000;stroke-width:0.49410814;paint-order:normal"
       id="rect848"
       width="29.505892"
       height="29.505892"
       x="-229.78871"
       y="-88.532761" />
    <rect
       y="-88.532761"
       x="-200.28282"
       height="29.505892"
       width="29.505892"
       id="rect850"
       style="opacity:1;fill:#fff6d5;fill-opacity:1;stroke:#000000;stroke-width:0.49410814;paint-order:normal" />
    <rect
       style="opacity:1;fill:#ff8080;fill-opacity:1;stroke:#000000;stroke-width:0.49410814;paint-order:normal"
       id="rect852"
       width="29.505892"
       height="29.505892"
       x="-170.77692"
       y="-88.532761" />
    <rect
       y="-88.532761"
       x="-141.27103"
       height="29.505892"
       width="29.505892"
       id="rect854"
       style="opacity:1;fill:#fff6d5;fill-opacity:1;stroke:#000000;stroke-width:0.49410814;paint-order:normal" />
    <rect
       style="opacity:1;fill:#fff6d5;fill-opacity:1;stroke:#000000;stroke-width:0.49410814;paint-order:normal"
       id="rect856"
       width="29.505892"
       height="29.505892"
       x="-259.29462"
       y="-59.026871" />
    <rect
       y="-59.026871"
       x="-229.78871"
       height="29.505892"
       width="29.505892"
       id="rect858"
       style="opacity:1;fill:#fff6d5;fill-opacity:1;stroke:#000000;stroke-width:0.49410814;paint-order:normal" />
    <rect
       style="opacity:1;fill:#000000;fill-opacity:1;stroke:#000000;stroke-width:0.49410814;paint-order:normal"
       id="rect860"
       width="29.505892"
       height="29.505892"
       x="-200.28282"
       y="-59.026871" />
    <rect
       y="-59.026871"
       x="-170.77692"
       height="29.505892"
       width="29.505892"
       id="rect862"
       style="opacity:1;fill:#fff6d5;fill-opacity:1;stroke:#000000;stroke-width:0.49410814;paint-order:normal" />
    <rect
       style="opacity:1;fill:#fff6d5;fill-opacity:1;stroke:#000000;stroke-width:0.49410814;paint-order:normal"
       id="rect864"
       width="29.505892"
       height="29.505892"
       x="-141.27103"
       y="-59.026871" />
    <rect
       y="-29.520983"
       x="-259.29462"
       height="29.505892"
       width="29.505892"
       id="rect866"
       style="opacity:1;fill:#fff6d5;fill-opacity:1;stroke:#000000;stroke-width:0.49410814;paint-order:normal" />
    <rect
       style="opacity:1;fill:#ff8080;fill-opacity:1;stroke:#000000;stroke-width:0.49410814;paint-order:normal"
       id="rect868"
       width="29.505892"
       height="29.505892"
       x="-229.78871"
       y="-29.520983" />
    <rect
       y="-29.520983"
       x="-200.28282"
       height="29.505892"
       width="29.505892"
       id="rect870"
       style="opacity:1;fill:#fff6d5;fill-opacity:1;stroke:#000000;stroke-width:0.49410814;paint-order:normal" />
    <rect
       style="opacity:1;fill:#ff8080;fill-opacity:1;stroke:#000000;stroke-width:0.49410814;paint-order:normal"
       id="rect872"
       width="29.505892"
       height="29.505892"
       x="-170.77692"
       y="-29.520983" />
    <rect
       y="-29.520983"
       x="-141.27103"
       height="29.505892"
       width="29.505892"
       id="rect874"
       style="opacity:1;fill:#fff6d5;fill-opacity:1;stroke:#000000;stroke-width:0.49410814;paint-order:normal" />
    <rect
       style="opacity:1;fill:#fff6d5;fill-opacity:1;stroke:#000000;stroke-width:0.49410814;paint-order:normal"
       id="rect876"
       width="29.505892"
       height="29.505892"
       x="-259.29462"
       y="-0.015092395" />
    <rect
       y="-0.015092395"
       x="-229.78871"
       height="29.505892"
       width="29.505892"
       id="rect878"
       style="opacity:1;fill:#fff6d5;fill-opacity:1;stroke:#000000;stroke-width:0.49410814;paint-order:normal" />
    <rect
       style="opacity:1;fill:#fff6d5;fill-opacity:1;stroke:#000000;stroke-width:0.49410814;paint-order:normal"
       id="rect880"
       width="29.505892"
       height="29.505892"
       x="-200.28282"
       y="-0.015092395" />
    <rect
       y="-0.015092395"
       x="-170.77692"
       height="29.505892"
       width="29.505892"
       id="rect882"
       style="opacity:1;fill:#fff6d5;fill-opacity:1;stroke:#000000;stroke-width:0.49410814;paint-order:normal" />
    <rect
       style="opacity:1;fill:#fff6d5;fill-opacity:1;stroke:#000000;stroke-width:0.49410814;paint-order:normal"
       id="rect884"
       width="29.505892"
       height="29.505892"
       x="-141.27103"
       y="-0.015092395" />
    <path
       style="opacity:1;fill:#ff8080;fill-opacity:1;stroke:#000000;stroke-width:0.5;paint-order:normal"
       id="path904"
       d="m -385.39396,-29.259762 c 0.31107,-3.54726 -0.0947,-7.00837 -0.75684,-10.48604 -0.76821,-3.60421 -1.12444,-7.27235 -1.32979,-10.94587 -0.009,-3.22427 -0.15351,-6.38435 -1.23553,-9.44152 -1.56965,-2.98123 -4.36148,-4.89357 -7.11699,-6.67815 -2.91063,-1.98777 -6.28796,-2.73894 -9.7265,-3.15108 -3.13364,-0.20988 -6.2986,-0.39528 -9.4318,-0.11438 -0.41375,0.13193 -0.85115,0.20493 -1.24124,0.39579 -0.35466,0.17352 -1.31472,0.87099 -0.96672,0.68447 2.92077,-1.56548 5.71671,-3.36613 8.69209,-4.82516 0.32486,-0.1593 -0.46354,0.56083 -0.64001,0.87669 -0.45591,0.81601 -0.53164,1.40511 -0.75231,2.30842 -0.48109,3.06959 -0.40417,6.19305 -0.3927,9.2906 0.0256,3.26036 0.034,6.5208 0.0466,9.78123 0.0176,3.19673 0.0109,6.39346 0.008,9.5902 0.0294,3.21238 -0.0638,6.42701 0.0771,9.637 0.30458,3.33936 1.09565,6.60668 2.10138,9.79739 1.06574,3.31735 1.84759,6.69631 3.04864,9.97125 1.34102,3.2876296 2.45914,6.6567596 3.78468,9.9507796 1.49379,3.32209002 3.06971,6.60098 4.84336,9.78405 1.89207,3.1635304 4.63492,5.4419704 7.7112,7.3737004 3.14395,1.86519 6.4435,3.44704 9.93508,4.53275 3.19574,1.14423 6.47393,1.86035 9.83965,2.24761 3.2162,0.29692 6.44963,0.29837 9.67656,0.30678 1.60829,-0.0562 3.20811,-0.29719 4.7536,-0.75094 3.18464,-0.935 11.40131,-6.07001 -5.38185,3.34106 3.33395,-2.16737 4.91719,-4.97219 6.68628,-8.38935 1.60183,-3.02113 2.16867,-6.3318704 2.46675,-9.6940504 0.20365,-3.22224 0.18046,-6.45357998 0.176,-9.68069 0.14489,-3.49399 -0.60357,-5.66386 -2.89644,-8.2782896 -2.31702,-2.41201 -5.33813,-3.26767 -8.54419,-3.70413 -3.22194,-0.31186 -6.46409,-0.26628 -9.69699,-0.2506 -3.2639,0.012 -6.52776,0.0315 -9.79166,0.0418 -1.36158,0.0694 -2.72459,0.31944 -4.04369,0.66318 -3.44733,0.89835 -10.74741,5.6649296 6.18603,-3.82859 -2.62376,1.87144 -3.82256,4.22914 -4.60769,7.27182 -0.34985,2.5037796 -0.94013,5.1987696 -0.36927,7.7237496 0.10304,0.4558 0.30271,0.88423 0.45407,1.32634 1.48993,3.08364002 4.2032,5.06599 7.17788,6.57864 3.01919,1.34202 6.3037,1.58929 9.5583,1.73066 1.96233,-0.13124 4.25171,0.45969 6.13851,-0.35 0.35313,-0.15155 1.27404,-0.85522 0.93494,-0.67444 -2.93467,1.56456 -5.81994,3.2201 -8.72991,4.83015 1.77308,-2.48669 1.47168,-4.13057 0.27484,-6.73458 -0.88351,-1.61188 -2.26556,-2.83252998 -3.59592,-4.06426 0,0 9.45609,-5.83585 9.45609,-5.83585 v 0 c 1.41444,1.3458 2.86401,2.69291 3.81321,4.4267 0.31448,0.66428 0.96416,1.94684002 1.12856,2.66432002 0.4058,1.77102998 -0.0518,3.64155998 -0.77896,5.25125998 -3.74977,2.35093 -7.06975,5.8652604 -11.39098,6.8215904 -2.03664,0.45073 -4.18138,0.0961 -6.23776,0.12405 -3.37166,-0.20216 -6.74408,-0.61634 -9.81185,-2.14069 -3.16325,-1.7416204 -6.00838,-3.9386104 -7.63837,-7.2559504 -0.19095,-0.51239 -0.4383,-1.00716 -0.57287,-1.53716 -0.66723,-2.62795 -0.0685,-5.45517 0.21073,-8.08428 0.67122,-3.2114696 1.67228,-5.7965796 4.22772,-7.9991396 6.89682,-4.04384 9.99593,-7.28736 17.17753,-7.42182 3.26455,-0.007 6.52908,-0.0194 9.79355,-0.0431 3.26545,-0.001 6.54479,-0.0224 9.78937,0.39939 3.40947,0.60012 6.54247,1.75929 8.96112,4.36118 2.41363,2.8357 3.44953,5.17437 3.2829,8.9613596 0.0129,3.25533 0.0504,6.51378 -0.13641,9.7655 -0.26301,3.47777 -0.72096,6.93337 -2.30694,10.0952904 -0.82028,1.62991 -1.58511,3.40127 -2.59107,4.92713 -1.0228,1.55139 -2.4304,2.79189 -3.84975,3.96413 -7.61473,4.49061 -10.66623,7.80045 -18.63226,7.94989 -3.25464,-0.021 -6.51836,-0.0286 -9.75496,-0.41681 -3.39789,-0.47345 -6.71109,-1.27628 -9.9461,-2.43033 -3.52192,-1.21632 -6.89331,-2.82654 -10.07145,-4.77569 -3.19069,-2.07598 -6.0263,-4.53155 -8.01619,-7.83255 -1.76188,-3.2388004 -3.3783,-6.5474004 -4.90437,-9.9027104 -1.32952,-3.30377998 -2.46232,-6.6792 -3.79889,-9.97968 -1.22011,-3.2872596 -2.0495,-6.6628396 -3.07281,-10.0106696 -1.07352,-3.26442 -1.87891,-6.61588 -2.25426,-10.03737 -0.21341,-3.22565 -0.0618,-6.46087 -0.10328,-9.69201 -0.004,-3.19553 -0.0111,-6.39104 -0.008,-9.58659 -0.005,-3.25951 -0.0285,-6.51884 -0.0497,-9.77828 -0.0128,-3.15725 -0.0809,-6.32881 0.24826,-9.47309 0.11401,-0.68048 0.50241,-3.34453 1.09941,-3.76282 3.81444,-2.67261 7.91166,-6.32975 12.75548,-7.10531 3.17943,-0.11467 6.37432,-0.0501 9.53748,0.30947 3.54683,0.54399 6.98907,1.49786 9.97604,3.5763 2.92892,1.95013 5.88186,4.04771 7.51296,7.26871 1.16113,3.14205 1.43506,6.39972 1.37998,9.73738 0.16159,3.63552 0.46192,7.26802 1.20839,10.8371 0.67059,3.50622 1.18688,6.98945 1.04299,10.57316 0,0 -9.99743,5.09394 -9.99743,5.09394 z"
       inkscape:connector-curvature="0" />
    <path
       inkscape:connector-curvature="0"
       d="m -303.98416,-29.259762 c -0.31107,-3.54726 0.0947,-7.00837 0.75684,-10.48604 0.76822,-3.60421 1.12445,-7.27235 1.3298,-10.94587 0.009,-3.22427 0.15352,-6.38435 1.23554,-9.44152 1.56966,-2.98123 4.36151,-4.89357 7.11703,-6.67815 2.91065,-1.98777 6.288,-2.73894 9.72655,-3.15108 3.13366,-0.20988 6.29863,-0.39528 9.43186,-0.11438 0.41374,0.13193 0.85115,0.20493 1.24124,0.39579 0.35466,0.17352 1.31473,0.87099 0.96672,0.68447 -2.92077,-1.56548 -5.71674,-3.36613 -8.69213,-4.82516 -0.32486,-0.1593 0.46354,0.56083 0.64001,0.87669 0.45592,0.81601 0.53164,1.40511 0.75232,2.30842 0.48109,3.06959 0.40417,6.19305 0.3927,9.2906 -0.0256,3.26036 -0.034,6.5208 -0.0466,9.78123 -0.0176,3.19673 -0.0109,6.39346 -0.008,9.5902 -0.0294,3.21238 0.0638,6.42701 -0.0771,9.637 -0.30458,3.33936 -1.09566,6.60668 -2.10139,9.79739 -1.06574,3.31735 -1.8476,6.69631 -3.04866,9.97125 -1.34102,3.2876296 -2.45915,6.6567596 -3.78471,9.9507796 -1.49379,3.32209002 -3.06972,6.60098 -4.84337,9.78405 -1.89208,3.1635304 -4.63496,5.4419704 -7.71125,7.3737004 -3.14397,1.86519 -6.44354,3.44704 -9.93514,4.53275 -3.19575,1.14423 -6.47397,1.86035 -9.83971,2.24761 -3.21621,0.29692 -6.44966,0.29837 -9.67661,0.30678 -1.60829,-0.0562 -3.2081,-0.29719 -4.75359,-0.75094 -3.18465,-0.935 -11.40132,-6.07001 5.38185,3.34106 -3.33396,-2.16737 -4.9172,-4.97219 -6.68628,-8.38935 -1.60185,-3.02113 -2.16868,-6.3318704 -2.46676,-9.6940504 -0.20365,-3.22224 -0.18046,-6.45357998 -0.176,-9.68069 -0.14489,-3.49399 0.60357,-5.66386 2.89644,-8.2782896 2.31702,-2.41201 5.33813,-3.26767 8.5442,-3.70413 3.22196,-0.31186 6.46414,-0.26628 9.69705,-0.2506 3.26392,0.012 6.52779,0.0315 9.79172,0.0418 1.36158,0.0694 2.7246,0.31944 4.04371,0.66318 3.44735,0.89835 10.74747,5.6649296 -6.18606,-3.82859 2.62377,1.87144 3.82257,4.22914 4.60771,7.27182 0.34986,2.5037796 0.94014,5.1987696 0.36928,7.7237496 -0.10305,0.4558 -0.30272,0.88423 -0.45408,1.32634 -1.48994,3.08364002 -4.20323,5.06599 -7.17792,6.57864 -3.0192,1.34202 -6.30373,1.58929 -9.55836,1.73066 -1.96234,-0.13124 -4.25173,0.45969 -6.13854,-0.35 -0.35313,-0.15155 -1.27405,-0.85522 -0.93495,-0.67444 2.9347,1.56456 5.81998,3.2201 8.72997,4.83015 -1.7731,-2.48669 -1.47169,-4.13057 -0.27485,-6.73458 0.88352,-1.61188 2.26557,-2.83252998 3.59595,-4.06426 0,0 -9.45615,-5.83585 -9.45615,-5.83585 v 0 c -1.41445,1.3458 -2.86403,2.69291 -3.81323,4.4267 -0.31449,0.66428 -0.96415,1.94684002 -1.12855,2.66432002 -0.40581,1.77102998 0.0518,3.64155998 0.77896,5.25125998 3.74977,2.35093 7.06978,5.8652604 11.39103,6.8215904 2.03665,0.45073 4.18141,0.0961 6.2378,0.12405 3.37168,-0.20216 6.74412,-0.61634 9.8119,-2.14069 3.16327,-1.7416204 6.00842,-3.9386104 7.63841,-7.2559504 0.19096,-0.51239 0.43831,-1.00716 0.57288,-1.53716 0.66723,-2.62795 0.0685,-5.45517 -0.21074,-8.08428 -0.67122,-3.2114696 -1.67228,-5.7965796 -4.22774,-7.9991396 -6.89685,-4.04384 -9.99598,-7.28736 -17.17762,-7.42182 -3.26457,-0.007 -6.52912,-0.0194 -9.79362,-0.0431 -3.26546,-0.001 -6.5448,-0.0224 -9.78938,0.39939 -3.40947,0.60012 -6.54247,1.75929 -8.96112,4.36118 -2.41363,2.8357 -3.44953,5.17437 -3.2829,8.9613596 -0.0129,3.25533 -0.0504,6.51378 0.13641,9.7655 0.26302,3.47777 0.72096,6.93337 2.30694,10.0952904 0.82029,1.62991 1.58511,3.40127 2.59108,4.92713 1.0228,1.55139 2.43039,2.79189 3.84974,3.96413 7.61473,4.49061 10.66624,7.80045 18.63231,7.94989 3.25466,-0.021 6.5184,-0.0286 9.75501,-0.41681 3.39792,-0.47345 6.71113,-1.27628 9.94616,-2.43033 3.52194,-1.21632 6.89336,-2.82654 10.07151,-4.77569 3.1907,-2.07598 6.02633,-4.53155 8.01623,-7.83255 1.76189,-3.2388004 3.37833,-6.5474004 4.90441,-9.9027104 1.32952,-3.30377998 2.46233,-6.6792 3.79891,-9.97968 1.22011,-3.2872596 2.04951,-6.6628396 3.07282,-10.0106696 1.07353,-3.26442 1.87892,-6.61588 2.25428,-10.03737 0.2134,-3.22565 0.0618,-6.46087 0.10328,-9.69201 0.004,-3.19553 0.0111,-6.39104 0.008,-9.58659 0.005,-3.25951 0.0285,-6.51884 0.0497,-9.77828 0.0128,-3.15725 0.0809,-6.32881 -0.24827,-9.47309 -0.11401,-0.68048 -0.50241,-3.34453 -1.09941,-3.76282 -3.81447,-2.67261 -7.91171,-6.32975 -12.75556,-7.10531 -3.17944,-0.11467 -6.37435,-0.0501 -9.53753,0.30947 -3.54684,0.54399 -6.98911,1.49786 -9.9761,3.5763 -2.92893,1.95013 -5.88189,4.04771 -7.513,7.26871 -1.16114,3.14205 -1.43506,6.39972 -1.37999,9.73738 -0.16159,3.63552 -0.46191,7.26802 -1.20839,10.8371 -0.67059,3.50622 -1.18689,6.98945 -1.043,10.57316 0,0 9.99748,5.09394 9.99748,5.09394 z"
       id="path912"
       style="opacity:1;fill:#ff8080;fill-opacity:1;stroke:#000000;stroke-width:0.5;paint-order:normal" />
  </g>
</svg>
